<svg width="78" height="78" viewBox="0 0 78 78" fill="none" xmlns="http://www.w3.org/2000/svg">
<path d="M54.8 7.09912H22.8C13.9634 7.09912 6.79996 14.2626 6.79996 23.0991V55.0991C6.79996 63.9357 13.9634 71.0991 22.8 71.0991H54.8C63.6365 71.0991 70.8 63.9357 70.8 55.0991V23.0991C70.8 14.2626 63.6365 7.09912 54.8 7.09912Z" stroke="#DD4B50" stroke-width="6.4" stroke-linecap="round" stroke-linejoin="round"/>
<path d="M51.5998 37.0826C51.9947 39.7458 51.5398 42.4657 50.2998 44.8555C49.0598 47.2452 47.0979 49.1831 44.693 50.3936C42.2881 51.604 39.5628 52.0253 36.9047 51.5976C34.2466 51.1699 31.791 49.9149 29.8873 48.0111C27.9835 46.1074 26.7286 43.6518 26.3008 40.9937C25.8731 38.3356 26.2944 35.6103 27.5049 33.2054C28.7153 30.8006 30.6532 28.8386 33.043 27.5986C35.4327 26.3586 38.1526 25.9037 40.8158 26.2986C43.5324 26.7015 46.0473 27.9673 47.9892 29.9092C49.9311 31.8511 51.197 34.3661 51.5998 37.0826Z" stroke="#DD4B50" stroke-width="6.4" stroke-linecap="round" stroke-linejoin="round"/>
<path d="M56.4 21.499H56.432" stroke="#DD4B50" stroke-width="6.4" stroke-linecap="round" stroke-linejoin="round"/>
</svg>
