<svg width="77" height="78" viewBox="0 0 77 78" fill="none" xmlns="http://www.w3.org/2000/svg">
<path d="M51.2 26.2993C56.2922 26.2993 61.1758 28.3222 64.7765 31.9229C68.3772 35.5236 70.4 40.4072 70.4 45.4993V67.8993H57.6V45.4993C57.6 43.8019 56.9257 42.1741 55.7255 40.9738C54.5252 39.7736 52.8974 39.0993 51.2 39.0993C49.5026 39.0993 47.8748 39.7736 46.6745 40.9738C45.4743 42.1741 44.8 43.8019 44.8 45.4993V67.8993H32V45.4993C32 40.4072 34.0229 35.5236 37.6236 31.9229C41.2242 28.3222 46.1078 26.2993 51.2 26.2993V26.2993Z" stroke="#DD4B50" stroke-width="6.4" stroke-linecap="round" stroke-linejoin="round"/>
<path d="M19.2 29.499H6.40002V67.899H19.2V29.499Z" stroke="#DD4B50" stroke-width="6.4" stroke-linecap="round" stroke-linejoin="round"/>
<path d="M12.8 19.8991C16.3346 19.8991 19.2 17.0337 19.2 13.4991C19.2 9.9645 16.3346 7.09912 12.8 7.09912C9.2654 7.09912 6.40002 9.9645 6.40002 13.4991C6.40002 17.0337 9.2654 19.8991 12.8 19.8991Z" stroke="#DD4B50" stroke-width="6.4" stroke-linecap="round" stroke-linejoin="round"/>
</svg>
