<svg width="78" height="78" viewBox="0 0 78 78" fill="none" xmlns="http://www.w3.org/2000/svg">
<g clip-path="url(#clip0_118_624)">
<path d="M74.2 10.2988C71.1356 12.4603 67.7427 14.1135 64.152 15.1948C62.2248 12.9788 59.6635 11.4082 56.8145 10.6953C53.9655 9.98249 50.9664 10.1618 48.2226 11.209C45.4789 12.2563 43.123 14.1209 41.4735 16.5507C39.8241 18.9805 38.9606 21.8583 39 24.7948V27.9948C33.3764 28.1406 27.8041 26.8934 22.7792 24.3642C17.7544 21.835 13.433 18.1024 10.2 13.4988C10.2 13.4988 -2.60001 42.2988 26.2 55.0988C19.6097 59.5723 11.7589 61.8154 3.79999 61.4988C32.6 77.4988 67.8 61.4988 67.8 24.6988C67.797 23.8074 67.7113 22.9183 67.544 22.0428C70.8099 18.822 73.1146 14.7555 74.2 10.2988Z" stroke="#DD4B50" stroke-width="6.4" stroke-linecap="round" stroke-linejoin="round"/>
</g>
<defs>
<clipPath id="clip0_118_624">
<rect width="76.8" height="76.8" fill="white" transform="translate(0.599976 0.699219)"/>
</clipPath>
</defs>
</svg>
