<svg width="78" height="78" viewBox="0 0 78 78" fill="none" xmlns="http://www.w3.org/2000/svg">
<g clip-path="url(#clip0_118_625)">
<path d="M72.9279 21.243C72.5478 19.7243 71.7736 18.3329 70.6836 17.2091C69.5936 16.0854 68.2263 15.2692 66.7199 14.843C61.2159 13.499 39.1999 13.499 39.1999 13.499C39.1999 13.499 17.1839 13.499 11.6799 14.971C10.1735 15.3972 8.8062 16.2134 7.71619 17.3371C6.62617 18.4609 5.852 19.8523 5.47188 21.371C4.46456 26.9568 3.97183 32.6232 3.99988 38.299C3.96397 44.0176 4.45673 49.7272 5.47188 55.355C5.89095 56.8265 6.68246 58.1651 7.76994 59.2414C8.85742 60.3176 10.2041 61.0952 11.6799 61.499C17.1839 62.971 39.1999 62.971 39.1999 62.971C39.1999 62.971 61.2159 62.971 66.7199 61.499C68.2263 61.0728 69.5936 60.2567 70.6836 59.1329C71.7736 58.0092 72.5478 56.6177 72.9279 55.099C73.9274 49.5553 74.4201 43.9321 74.3999 38.299C74.4358 32.5805 73.943 26.8709 72.9279 21.243V21.243Z" stroke="#DD4B50" stroke-width="6.4" stroke-linecap="round" stroke-linejoin="round"/>
<path d="M32 48.763L50.4 38.299L32 27.835V48.763Z" stroke="#DD4B50" stroke-width="6.4" stroke-linecap="round" stroke-linejoin="round"/>
</g>
<defs>
<clipPath id="clip0_118_625">
<rect width="76.8" height="76.8" fill="white" transform="translate(0.799988 0.699219)"/>
</clipPath>
</defs>
</svg>
